<svg
  width="1400"
  height="300"
  viewBox="0 0 1400 300"
  xmlns="http://www.w3.org/2000/svg"
>
  <!-- Sfondo -->
  <rect width="1400" height="300" fill="#6E2C1F" />

  <!-- Gruppo foglie -->
  <g opacity="0.95">

    <!-- Riga 1 -->
    <path d="M120 140 C70 90, 40 60, 90 50 C140 40, 150 80, 190 50
             C240 70, 210 110, 180 150 C210 190, 160 230, 120 190
             C80 230, 30 190, 60 150 Z"
          fill="#C06A3A" transform="rotate(-8 120 140)" />

    <path d="M280 110 C240 70, 210 40, 250 30 C300 20, 310 60, 340 30
             C380 50, 360 90, 330 120 C360 150, 310 190, 270 160
             C230 190, 190 150, 220 120 Z"
          fill="#A34A2E" transform="rotate(6 280 110)" />

    <path d="M450 150 C410 110, 380 80, 420 70 C470 60, 480 100, 510 70
             C550 90, 520 130, 490 160 C520 200, 470 230, 430 200
             C390 230, 350 200, 380 160 Z"
          fill="#8C3A2B" transform="rotate(-4 450 150)" />

    <path d="M630 120 C590 80, 560 50, 600 40 C650 30, 660 70, 690 40
             C730 60, 700 100, 670 130 C700 170, 650 200, 610 170
             C570 200, 530 170, 560 130 Z"
          fill="#C06A3A" transform="rotate(10 630 120)" />

    <path d="M800 160 C760 120, 720 90, 760 80 C810 70, 820 110, 850 80
             C890 100, 860 140, 830 170 C860 210, 810 240, 770 210
             C730 240, 690 210, 720 170 Z"
          fill="#A34A2E" transform="rotate(-6 800 160)" />

    <path d="M980 130 C940 90, 900 60, 940 50 C990 40, 1000 80, 1030 50
             C1070 70, 1040 110, 1010 140 C1040 180, 990 210, 950 180
             C910 210, 870 180, 900 140 Z"
          fill="#8C3A2B" transform="rotate(8 980 130)" />

    <path d="M1150 150 C1110 110, 1070 80, 1110 70 C1160 60, 1170 100, 1200 70
             C1240 90, 1210 130, 1180 160 C1210 200, 1160 230, 1120 200
             C1080 230, 1040 200, 1070 160 Z"
          fill="#C06A3A" transform="rotate(-3 1150 150)" />

    <!-- Riga 2 (sovrapposta) -->
    <path d="M200 200 C150 160, 120 130, 170 120 C220 110, 230 150, 260 120
             C300 140, 270 180, 240 210 C270 250, 220 280, 180 250
             C140 280, 90 250, 120 210 Z"
          fill="#8C3A2B" opacity="0.85" transform="rotate(5 200 200)" />

    <path d="M520 210 C470 170, 440 140, 490 130 C540 120, 550 160, 580 130
             C620 150, 590 190, 560 220 C590 260, 540 290, 500 260
             C460 290, 410 260, 440 220 Z"
          fill="#A34A2E" opacity="0.85" transform="rotate(-7 520 210)" />

    <path d="M880 220 C830 180, 800 150, 850 140 C900 130, 910 170, 940 140
             C980 160, 950 200, 920 230 C950 270, 900 300, 860 270
             C820 300, 770 270, 800 230 Z"
          fill="#C06A3A" opacity="0.85" transform="rotate(4 880 220)" />

  </g>
</svg>
