<svg
  xmlns="http://www.w3.org/2000/svg"
  viewBox="0 0 1200 300"
  preserveAspectRatio="xMidYMid slice"
>
  <defs>
    
    <path id="leaf"
      d="
        M50 5
        C30 20, 10 60, 25 95
        C35 120, 60 120, 75 95
        C90 60, 70 20, 50 5
        Z
      "
    />
  </defs>

  <g opacity="0.9">
    <use href="#leaf" fill="#8c3b1f" transform="translate(40 40) rotate(-15) scale(1.2)" />
    <use href="#leaf" fill="#a94f2a" transform="translate(120 80) rotate(20) scale(0.9)" />
    <use href="#leaf" fill="#c06b2c" transform="translate(200 30) rotate(-35) scale(1.1)" />
    <use href="#leaf" fill="#7a2f18" transform="translate(300 100) rotate(15) scale(1)" />
    <use href="#leaf" fill="#b35a2d" transform="translate(420 60) rotate(-10) scale(1.3)" />
    <use href="#leaf" fill="#9a4123" transform="translate(520 110) rotate(25) scale(0.95)" />
    <use href="#leaf" fill="#d07a3a" transform="translate(620 40) rotate(-20) scale(1.15)" />
    <use href="#leaf" fill="#8b361d" transform="translate(740 90) rotate(30) scale(1)" />
    <use href="#leaf" fill="#b86432" transform="translate(860 50) rotate(-25) scale(1.2)" />
    <use href="#leaf" fill="#a34b27" transform="translate(980 100) rotate(10) scale(1)" />
    <use href="#leaf" fill="#cf7a3c" transform="translate(1080 40) rotate(-30) scale(1.1)" />
  </g>
</svg>
